PathFileType	4	(X/Y/Z)	D:\MotionData\Pi-Spi Study\20230118_AMCsubject1\Trimmed_right_abd_18001_rotated.trc
DataRate	CameraRate	NumFrames	NumMarkers	Units	OrigDataRate	OrigDataStartFrame	OrigNumFrames
200.00	200.00	       8	35	mm	200.00	51	       200
Frame#	Time	C7			Sternum			r_AMC1			r_AMC2			r_AMC3			l_AMC1			l_AMC2			l_AMC3			PX			T8			r_humerous			r_elbow_medial			r_elbow_lateral			r_forearm			r_wrist_radius			r_wrist_ulna			r_MCP_1			r_MCP_3			l_humerous			l_elbow_medial			l_elbow_lateral			l_forearm			l_wrist_radius			l_wrist_ulna			l_MCP_1			l_MCP_3			r_ASIS			r_PSIS			l_ASIS			l_PSIS			r_IC			l_IC			TS			AI			AA			
		X1	Y1	Z1	X2	Y2	Z2	X3	Y3	Z3	X4	Y4	Z4	X5	Y5	Z5	X6	Y6	Z6	X7	Y7	Z7	X8	Y8	Z8	X9	Y9	Z9	X10	Y10	Z10	X11	Y11	Z11	X12	Y12	Z12	X13	Y13	Z13	X14	Y14	Z14	X15	Y15	Z15	X16	Y16	Z16	X17	Y17	Z17	X18	Y18	Z18	X19	Y19	Z19	X20	Y20	Z20	X21	Y21	Z21	X22	Y22	Z22	X23	Y23	Z23	X24	Y24	Z24	X25	Y25	Z25	X26	Y26	Z26	X27	Y27	Z27	X28	Y28	Z28	X29	Y29	Z29	X30	Y30	Z30	X31	Y31	Z31	X32	Y32	Z32	X33	Y33	Z33	X34	Y34	Z34	X35	Y35	Z35	

51	0.25	191.9288	1374.3667	-245.0567	328.1993	1321.9069	-222.4298	155.4404	1342.7269	-114.7055	184.4747	1378.4747	-96.6961	187.2409	1397.0238	-136.7996	220.2182	1322.8551	-397.4232	260.6341	1316.088	-428.2805	282.1699	1353.7549	-399.8266	389.0892	1130.1829	-206.096	157.6521	1190.9989	-243.5119	264.3032	1475.0873	-78.1747	352.1448	1556.2341	14.2665	295.1317	1579.2648	14.2641	335.0592	1741.2943	27.9683	376.4343	1807.5084	3.6667	364.7133	1800.8248	54.4762	396.2427	1888.9708	6.4714	389.0012	1883.1946	53.7174	343.1607	1126.1099	-424.4278	294.2717	992.967	-379.492	285.8832	987.1364	-431.6367	319.6259	841.0512	-472.4303	333.4047	764.0035	-456.6176	355.0107	774.2573	-492.1997	347.4267	688.6993	-467.24	362.0857	697.7195	-509.0988	351.4587	909.3384	-75.8608	168.9912	929.6876	-168.5385	367.3991	892.9222	-334.7774	175.4736	922.8391	-271.266	269.3639	972.0433	-52.5367	281.1039	940.9412	-378.0445	100.2934	1295.1201	-157.9533	118.7713	1221.3121	-89.6849	135.7598	1389.4066	-54.1461
52	0.255	191.7534	1374.3315	-244.8995	328.1682	1321.9138	-222.459	155.4468	1342.7443	-114.7156	184.4728	1378.4768	-96.758	187.2478	1397.0176	-136.8211	220.1977	1322.8673	-397.4405	260.6391	1316.0718	-428.3039	282.1775	1353.7435	-399.8723	389.1076	1130.1921	-206.0881	157.678	1191.0026	-243.5394	264.3083	1475.0864	-78.1889	352.1871	1556.2328	14.2443	295.111	1579.2692	14.24	335.0613	1741.2954	27.9476	376.4371	1807.4992	3.6549	364.7244	1800.8363	54.46	396.2454	1888.9578	6.4507	389.0018	1883.1847	53.6913	343.1307	1126.1392	-424.4307	294.2634	992.9727	-379.503	285.8249	986.9757	-431.6756	319.6527	841.0748	-472.46	333.4114	764.0228	-456.6065	355.0193	774.2639	-492.2332	347.4562	688.6823	-467.2338	362.1379	697.6973	-509.1066	351.4481	909.3406	-75.8508	169.0033	929.7117	-168.5686	367.3656	892.8916	-334.8037	175.4876	922.8397	-271.2814	269.3612	972.0377	-52.5376	281.1661	940.9456	-378.0319	100.3076	1295.1252	-157.9714	118.7848	1221.254	-89.7899	135.7736	1389.4556	-54.1758
53	0.26	191.9257	1374.3735	-245.1057	328.1976	1321.9205	-222.4618	155.4408	1342.6991	-114.7497	184.4368	1378.4747	-96.855	187.2403	1397.0094	-136.8448	220.1356	1322.9375	-397.4575	260.6432	1316.0765	-428.3426	282.169	1353.7513	-399.8961	389.1311	1130.1624	-206.1058	157.6665	1190.9841	-243.5531	264.3103	1475.0851	-78.195	352.1615	1556.2158	14.2366	295.115	1579.2653	14.2224	335.0746	1741.2806	27.9352	376.3886	1807.408	3.6874	364.7296	1800.8191	54.441	396.2995	1888.9642	6.4487	389.0197	1883.187	53.6822	343.1102	1126.18	-424.4824	294.2838	993.004	-379.5155	285.8232	986.9698	-431.6705	319.6612	841.054	-472.4579	333.4406	764.049	-456.6219	355.0601	774.2551	-492.2158	347.4632	688.7033	-467.2726	362.1496	697.7111	-509.1091	351.4558	909.3192	-75.8974	168.9891	929.6953	-168.5656	367.4004	892.9022	-334.8101	175.4784	922.8443	-271.2841	269.3838	972.0206	-52.5538	281.1539	940.8904	-378.0802	100.307	1295.1604	-157.9987	118.7307	1221.295	-89.7493	135.7632	1389.4714	-54.1692
54	0.265	191.918	1374.3799	-245.1263	328.1898	1321.9398	-222.5082	155.4324	1342.751	-114.7621	184.4502	1378.463	-96.8731	187.2455	1397.0137	-136.8672	220.1778	1322.8894	-397.5052	260.6437	1316.0767	-428.3429	282.1898	1353.7628	-399.93	389.1051	1130.2566	-206.1767	157.672	1190.9968	-243.5761	264.3007	1475.0944	-78.2111	352.1373	1556.2918	14.2375	295.1348	1579.2732	14.1907	335.0926	1741.2885	27.9059	376.4697	1807.4821	3.6244	364.7436	1800.816	54.4308	396.3091	1888.9545	6.4383	389.0354	1883.1728	53.6854	343.1149	1126.1925	-424.4981	294.316	992.9754	-379.4995	285.8714	986.9571	-431.6703	319.6844	841.0582	-472.4506	333.4511	764.0721	-456.6567	355.0762	774.2623	-492.2398	347.5407	688.7164	-467.2387	362.191	697.7333	-509.1393	351.463	909.3241	-75.8808	169.0115	929.7148	-168.594	367.4045	892.9246	-334.8218	175.4838	922.8488	-271.2992	269.4157	972.0279	-52.5892	281.1421	940.9868	-378.1309	100.296	1295.1719	-158.0179	118.7377	1221.3126	-89.8018	135.7579	1389.4874	-54.1871
55	0.27	191.9098	1374.3752	-245.1415	328.2142	1321.9388	-222.5062	155.477	1342.7307	-114.7758	184.4363	1378.4762	-96.8971	187.2455	1397.0205	-136.8723	220.1897	1322.8543	-397.5067	260.6389	1316.0776	-428.3936	282.1624	1353.7643	-399.9547	389.101	1130.245	-206.2206	157.676	1190.9924	-243.5886	264.3206	1475.0817	-78.2427	352.1387	1556.2511	14.2214	295.1396	1579.2678	14.1794	335.0855	1741.2791	27.9069	376.4966	1807.4924	3.6125	364.7484	1800.8133	54.4102	396.3192	1888.958	6.4381	389.0382	1883.1615	53.6668	343.1305	1126.1716	-424.531	294.3155	992.9832	-379.5283	286.3899	988.0375	-431.621	319.69	841.0585	-472.4748	333.4667	764.0677	-456.6529	355.1035	774.2759	-492.2404	347.5384	688.6955	-467.2747	362.2308	697.7343	-509.1407	351.4378	909.3064	-75.9181	168.6803	929.8874	-168.6614	367.3707	892.8881	-334.8252	175.4777	922.8558	-271.317	269.3844	972.0451	-52.6117	281.1467	940.9239	-378.1446	100.2867	1295.1834	-158.0396	118.7351	1221.3602	-89.7758	135.7705	1389.5124	-54.1969
56	0.275	191.9209	1374.3637	-245.1679	328.1702	1321.9168	-222.5472	155.4757	1342.7394	-114.7991	184.4695	1378.4757	-96.9203	187.2489	1397.0237	-136.8805	220.1812	1322.8818	-397.5904	260.6404	1316.0897	-428.3945	282.1836	1353.762	-399.9844	389.1548	1130.2872	-206.2081	157.6633	1190.994	-243.5938	264.3494	1475.0832	-78.2706	352.1387	1556.2684	14.2075	295.146	1579.2576	14.1638	335.0987	1741.2693	27.8824	376.4996	1807.4868	3.6065	364.743	1800.811	54.3854	396.3436	1888.953	6.4392	389.0771	1883.1746	53.6675	343.1268	1126.1875	-424.5262	294.341	992.9759	-379.5401	285.8639	986.9709	-431.676	319.7179	841.0545	-472.4771	333.5196	764.0571	-456.6498	354.8459	774.138	-492.0579	347.5965	688.7017	-467.2557	362.256	697.7355	-509.1486	351.391	909.3024	-75.9194	168.9932	929.7351	-168.6132	367.369	892.8849	-334.8308	175.4921	922.8483	-271.3318	269.4112	972.0613	-52.6466	281.1917	940.9855	-378.136	100.3086	1295.21	-158.0765	118.7128	1221.3658	-89.7951	135.7804	1389.5181	-54.2054
57	0.28	191.917	1374.3688	-245.1824	328.1893	1321.9349	-222.5813	155.4779	1342.7425	-114.8093	184.4703	1378.4716	-96.9192	187.2588	1397.0101	-136.9268	220.142	1322.9172	-397.5299	260.6638	1316.0981	-428.4338	282.1912	1353.7747	-400.009	389.1557	1130.3127	-206.2608	157.6803	1190.9897	-243.6041	264.3405	1475.0841	-78.3017	352.1254	1556.2532	14.1985	295.1519	1579.2755	14.1354	335.1062	1741.2765	27.8805	376.5265	1807.4934	3.5777	364.7873	1800.9032	54.343	396.3883	1888.9675	6.4169	389.0762	1883.1693	53.6621	343.1286	1126.2064	-424.5552	294.3708	992.9825	-379.5235	285.8989	986.9546	-431.7126	319.757	841.0708	-472.4938	333.5394	764.0768	-456.6759	355.169	774.2812	-492.2441	348.3424	688.3729	-466.8924	362.3328	697.7559	-509.1705	351.4331	909.294	-75.9586	169.018	929.7084	-168.6362	367.398	892.8853	-334.8584	175.4847	922.858	-271.35	269.4015	972.051	-52.6685	281.1024	941.0009	-378.1869	100.2988	1295.2269	-158.0806	118.736	1221.3686	-89.8255	135.8016	1389.5432	-54.2016
58	0.285	191.9131	1374.3578	-245.213	328.1752	1321.9249	-222.6134	155.469	1342.7472	-114.8267	184.4737	1378.4701	-96.9527	187.2736	1397.0072	-136.9589	220.1808	1322.9055	-397.5894	260.6602	1316.0941	-428.4576	282.2044	1353.7699	-400.0291	389.1785	1130.326	-206.2755	157.661	1190.9908	-243.6192	264.3826	1475.0798	-78.3278	352.1355	1556.2507	14.1904	295.1692	1579.2629	14.1056	335.1278	1741.2594	27.867	376.5386	1807.4965	3.5861	364.8091	1800.8158	54.3836	396.424	1888.9579	6.4242	389.0979	1883.1573	53.671	343.1456	1126.1868	-424.5451	294.3532	992.9855	-379.5501	285.9082	986.9598	-431.7088	319.7796	841.0648	-472.4925	333.595	764.0588	-456.6706	355.2079	774.2949	-492.2524	347.6544	688.7366	-467.3259	362.3515	697.7955	-509.1782	351.4094	909.2803	-75.9607	169.0036	929.7128	-168.6497	367.4014	892.8848	-334.8825	175.4751	922.853	-271.3541	269.4147	972.054	-52.6799	281.1834	941.014	-378.1876	100.3053	1295.2468	-158.1115	118.7412	1221.4221	-89.8393	135.8026	1389.566	-54.2144
